<svg id="Слой_1" data-name="Слой 1" xmlns="http://www.w3.org/2000/svg" viewBox="0 0 271.03 135.5"><defs><style>.cls-1{fill:#e6e6e6;}.cls-2,.cls-4{fill:none;stroke-miterlimit:10;}.cls-2{stroke:#ddd;stroke-width:7px;}.cls-3{fill:#fff;}.cls-4{stroke:#fff;}</style></defs><title>reef</title><rect class="cls-1" x="0.03" y="92" width="271" height="5"/><path class="cls-1" d="M378,289H121c-2,0-3,0-4-1s-1-2-1-4V199H378Z" transform="translate(-106.97 -199)"/><path class="cls-1" d="M116,268h-4.32s-1.44,0-2.88-1.92a38.7,38.7,0,0,1-1.65-11c-.3-10.48-.14-49.24-.15-55.06a.9.9,0,0,1,1-1h8Z" transform="translate(-106.97 -199)"/><path class="cls-1" d="M116,283" transform="translate(-106.97 -199)"/><rect class="cls-1" x="85.03" y="97" width="52" height="9"/><circle class="cls-2" cx="195.78" cy="118.25" r="13.75"/><path class="cls-1" d="M282,296v9h5.54a19.49,19.49,0,0,1,29.92,0h12.08a19.49,19.49,0,0,1,29.92,0H367v-9Z" transform="translate(-106.97 -199)"/><circle class="cls-2" cx="237.28" cy="117.69" r="13.75"/><circle class="cls-3" cx="137.03" cy="46" r="5"/><rect class="cls-3" x="136.03" y="22" width="2" height="24"/><path class="cls-1" d="M244,227" transform="translate(-106.97 -199)"/><polyline class="cls-4" points="130.03 23 137.03 29 144.03 23"/><polyline class="cls-3" points="136.34 46.67 119.37 29.7 120.78 28.29 137.75 45.26"/><path class="cls-1" d="M245.33,231.93" transform="translate(-106.97 -199)"/><polyline class="cls-4" points="115.83 34.65 125.03 33.95 125.73 24.75"/><polyline class="cls-3" points="138.03 46 114.03 46 114.03 44 138.03 44"/><polyline class="cls-4" points="115.03 52 121.03 45 115.03 38"/><rect class="cls-3" x="251.33" y="224.12" width="2" height="24" transform="translate(133.9 -308.27) rotate(45)"/><path class="cls-1" d="M256.58,231.88" transform="translate(-106.97 -199)"/><polyline class="cls-4" points="148.19 24.4 148.9 33.59 158.09 34.3"/><rect class="cls-3" x="255" y="232" width="2" height="24" transform="translate(393.03 -211) rotate(90)"/><path class="cls-1" d="M262,244" transform="translate(-106.97 -199)"/><polyline class="cls-4" points="160.03 38 154.03 45 160.03 52"/><rect class="cls-3" x="243" y="245" width="2" height="24" transform="translate(381.03 315) rotate(180)"/><path class="cls-1" d="M244,263" transform="translate(-106.97 -199)"/><polyline class="cls-4" points="144.03 69 137.03 63 130.03 69"/><polyline class="cls-3" points="137.72 45.33 154.69 62.3 153.28 63.71 136.31 46.74"/><path class="cls-1" d="M242.67,258.07" transform="translate(-106.97 -199)"/><polyline class="cls-4" points="158.23 57.35 149.04 58.05 148.33 67.25"/><rect class="cls-3" x="234.67" y="241.87" width="2" height="24" transform="translate(115.82 401.03) rotate(-135)"/><path class="cls-1" d="M231.42,258.12" transform="translate(-106.97 -199)"/><polyline class="cls-4" points="125.87 67.6 125.16 58.41 115.97 57.7"/><path class="cls-1" d="M226,246" transform="translate(-106.97 -199)"/></svg>